# xmcd
#
# Track frame offsets:
#	150
#	26250
#	50300
#	70600
#	89100
#	111425
#	133425
#	149150
#	168425
#	189300
#
# Disc length: 2769 seconds
#
# Revision: 1852785486
# Processed by: cddbd v1.5.2PL0 Copyright (c) Steve Scherf et al.
# Submitted via: EZCDAudioConverter 8.0.2.1
#
DISCID=950acf0a
DTITLE=Various Artist - Dạ Vũ
DYEAR=1991
DGENRE=World Pop
TTITLE0=Lâm Thúy Vân - Nắng thu
TTITLE1=Kiều Nga - Trả lại thoáng mây bay
TTITLE2=Thái Thảo - Vô cùng
TTITLE3=Thanh Mai - Biển mộng
TTITLE4=Ngọc Lan - Mùa hè vô tận
TTITLE5=Thúy Vi - Ướt mi
TTITLE6=Như Mai - Mùa hè trên vai em
TTITLE7=Nhật Hạ - Tình yêu còn mãi
TTITLE8=Lâm Thúy Vân - Mộng tình
TTITLE9=Thái Hiền - Trái tim xanh
EXTD=
EXTT0=
EXTT1=
EXTT2=
EXTT3=
EXTT4=
EXTT5=
EXTT6=
EXTT7=
EXTT8=
EXTT9=
PLAYORDER=
